<svg width="100%" height="100%" id="svg" viewBox="0 0 1440 590" xmlns="http://www.w3.org/2000/svg" class="transition duration-300 ease-in-out delay-150"><defs><linearGradient id="gradient" x1="87%" y1="17%" x2="13%" y2="83%"><stop offset="5%" stop-color="#fff"></stop><stop offset="95%" stop-color="#fff"></stop></linearGradient></defs><path d="M 0,400 C 0,400 0,200 0,200 C 65.99042709867452,194.13512518409425 131.98085419734903,188.2702503681885 182,177 C 232.01914580265097,165.7297496318115 266.0670103092784,149.05412371134022 334,162 C 401.9329896907216,174.94587628865978 503.7511045655375,217.51325478645066 564,218 C 624.2488954344625,218.48674521354934 642.9285714285714,176.8928571428571 701,182 C 759.0714285714286,187.1071428571429 856.5346097201767,238.9153166421208 917,242 C 977.4653902798233,245.0846833578792 1000.9329896907218,199.4458762886598 1059,193 C 1117.0670103092782,186.5541237113402 1209.7334315169367,219.30117820324006 1279,227 C 1348.2665684830633,234.69882179675994 1394.1332842415318,217.34941089837997 1440,200 C 1440,200 1440,400 1440,400 Z" stroke="none" stroke-width="0" fill="url(#gradient)" fill-opacity="1" class="transition-all duration-300 ease-in-out delay-150 path-0" transform="rotate(-180 720 200)"></path></svg>